<svg xmlns="http://www.w3.org/2000/svg" width="1200" height="360" viewBox="0 0 1200 360" role="img" aria-labelledby="t d">
<title id="t">Taha Kotil · GitHub activity, last 8 weeks</title>
<desc id="d">1387 contributions over the last 8 weeks, 52 of 56 days active, 2380 in the last year.</desc>
<defs>
<linearGradient id="fill" x1="0" y1="0" x2="0" y2="1"><stop offset="0" stop-color="#f59e0b" stop-opacity=".35"/><stop offset="1" stop-color="#f59e0b" stop-opacity="0"/></linearGradient>
</defs>
<style>
text{font-family:ui-monospace, SFMono-Regular, Menlo, Consolas, 'Liberation Mono', monospace}
@keyframes draw{to{stroke-dashoffset:0}}.ln{stroke-dasharray:1;stroke-dashoffset:1;animation:draw 2.2s .3s ease-out forwards}
@keyframes fade{to{opacity:1}}.ar{opacity:0;animation:fade 1s 1.4s forwards}
@media (prefers-reduced-motion:reduce){.ln{animation:none;stroke-dashoffset:0}.ar{animation:none;opacity:1}}
</style>
<rect width="1200" height="360" rx="16" fill="#0d1117"/>
<rect x=".5" y=".5" width="1199" height="359" rx="15.5" fill="none" stroke="#30363d"/>
<path d="M0 16a16 16 0 0 1 16-16h1168a16 16 0 0 1 16 16v28H0z" fill="#161b22"/>
<path d="M0 44H1200" stroke="#30363d"/>
<circle cx="26" cy="22" r="6.5" fill="#ff5f57"/><circle cx="48" cy="22" r="6.5" fill="#febc2e"/><circle cx="70" cy="22" r="6.5" fill="#28c840"/>
<text x="600.0" y="28" text-anchor="middle" style="font-size:14px;fill:#7d8590">activity · last 8 weeks</text>
<text x="60.0" y="94" style="font:700 30px Inter, 'Segoe UI', Helvetica, Arial, sans-serif;fill:#f0f6fc;letter-spacing:-.5px">1,387</text>
<text x="62.0" y="118" style="font-size:13px;letter-spacing:1px;fill:#7d8590">CONTRIBUTIONS · 8 WEEKS</text>
<text x="425.3333333333333" y="94" style="font:700 30px Inter, 'Segoe UI', Helvetica, Arial, sans-serif;fill:#f0f6fc;letter-spacing:-.5px">52/56</text>
<text x="427.3333333333333" y="118" style="font-size:13px;letter-spacing:1px;fill:#7d8590">ACTIVE DAYS</text>
<text x="790.6666666666666" y="94" style="font:700 30px Inter, 'Segoe UI', Helvetica, Arial, sans-serif;fill:#f0f6fc;letter-spacing:-.5px">2,380</text>
<text x="792.6666666666666" y="118" style="font-size:13px;letter-spacing:1px;fill:#7d8590">CONTRIBUTIONS · 12 MONTHS</text>
<path d="M60 300.0H1156" stroke="#21262d" stroke-dasharray="0"/>
<path d="M60 225.0H1156" stroke="#21262d" stroke-dasharray="3 6"/>
<path d="M60 150.0H1156" stroke="#21262d" stroke-dasharray="3 6"/>
<text x="50" y="154" text-anchor="end" style="font-size:12px;fill:#7d8590">86</text>
<text x="50" y="304" text-anchor="end" style="font-size:12px;fill:#7d8590">0</text>
<path d="M60.0 247.7 C70.0 247.7 70.0 240.7 79.9 240.7 C89.9 240.7 89.9 279.1 99.9 279.1 C109.8 279.1 109.8 286.0 119.8 286.0 C129.7 286.0 129.7 237.2 139.7 237.2 C149.7 237.2 149.7 286.0 159.6 286.0 C169.6 286.0 169.6 300.0 179.6 300.0 C189.5 300.0 189.5 279.1 199.5 279.1 C209.5 279.1 209.5 282.6 219.4 282.6 C229.4 282.6 229.4 275.6 239.3 275.6 C249.3 275.6 249.3 298.3 259.3 298.3 C269.2 298.3 269.2 183.1 279.2 183.1 C289.2 183.1 289.2 240.7 299.1 240.7 C309.1 240.7 309.1 263.4 319.1 263.4 C329.0 263.4 329.0 153.5 339.0 153.5 C348.9 153.5 348.9 193.6 358.9 193.6 C368.9 193.6 368.9 239.0 378.8 239.0 C388.8 239.0 388.8 293.0 398.8 293.0 C408.7 293.0 408.7 258.1 418.7 258.1 C428.7 258.1 428.7 300.0 438.6 300.0 C448.6 300.0 448.6 296.5 458.5 296.5 C468.5 296.5 468.5 300.0 478.5 300.0 C488.4 300.0 488.4 247.7 498.4 247.7 C508.4 247.7 508.4 237.2 518.3 237.2 C528.3 237.2 528.3 258.1 538.3 258.1 C548.2 258.1 548.2 270.3 558.2 270.3 C568.1 270.3 568.1 275.6 578.1 275.6 C588.1 275.6 588.1 232.0 598.0 232.0 C608.0 232.0 608.0 232.0 618.0 232.0 C627.9 232.0 627.9 254.7 637.9 254.7 C647.9 254.7 647.9 266.9 657.8 266.9 C667.8 266.9 667.8 279.1 677.7 279.1 C687.7 279.1 687.7 205.8 697.7 205.8 C707.6 205.8 707.6 164.0 717.6 164.0 C727.6 164.0 727.6 287.8 737.5 287.8 C747.5 287.8 747.5 244.2 757.5 244.2 C767.4 244.2 767.4 265.1 777.4 265.1 C787.3 265.1 787.3 266.9 797.3 266.9 C807.3 266.9 807.3 300.0 817.2 300.0 C827.2 300.0 827.2 275.6 837.2 275.6 C847.1 275.6 847.1 296.5 857.1 296.5 C867.1 296.5 867.1 275.6 877.0 275.6 C887.0 275.6 887.0 294.8 896.9 294.8 C906.9 294.8 906.9 287.8 916.9 287.8 C926.8 287.8 926.8 273.8 936.8 273.8 C946.8 273.8 946.8 282.6 956.7 282.6 C966.7 282.6 966.7 294.8 976.7 294.8 C986.6 294.8 986.6 282.6 996.6 282.6 C1006.5 282.6 1006.5 200.6 1016.5 200.6 C1026.5 200.6 1026.5 242.4 1036.4 242.4 C1046.4 242.4 1046.4 158.7 1056.4 158.7 C1066.3 158.7 1066.3 150.0 1076.3 150.0 C1086.3 150.0 1086.3 272.1 1096.2 272.1 C1106.2 272.1 1106.2 275.6 1116.1 275.6 C1126.1 275.6 1126.1 273.8 1136.1 273.8 C1146.0 273.8 1146.0 223.3 1156.0 223.3 L1156 300 L60 300 Z" fill="url(#fill)" class="ar"/>
<path d="M60.0 247.7 C70.0 247.7 70.0 240.7 79.9 240.7 C89.9 240.7 89.9 279.1 99.9 279.1 C109.8 279.1 109.8 286.0 119.8 286.0 C129.7 286.0 129.7 237.2 139.7 237.2 C149.7 237.2 149.7 286.0 159.6 286.0 C169.6 286.0 169.6 300.0 179.6 300.0 C189.5 300.0 189.5 279.1 199.5 279.1 C209.5 279.1 209.5 282.6 219.4 282.6 C229.4 282.6 229.4 275.6 239.3 275.6 C249.3 275.6 249.3 298.3 259.3 298.3 C269.2 298.3 269.2 183.1 279.2 183.1 C289.2 183.1 289.2 240.7 299.1 240.7 C309.1 240.7 309.1 263.4 319.1 263.4 C329.0 263.4 329.0 153.5 339.0 153.5 C348.9 153.5 348.9 193.6 358.9 193.6 C368.9 193.6 368.9 239.0 378.8 239.0 C388.8 239.0 388.8 293.0 398.8 293.0 C408.7 293.0 408.7 258.1 418.7 258.1 C428.7 258.1 428.7 300.0 438.6 300.0 C448.6 300.0 448.6 296.5 458.5 296.5 C468.5 296.5 468.5 300.0 478.5 300.0 C488.4 300.0 488.4 247.7 498.4 247.7 C508.4 247.7 508.4 237.2 518.3 237.2 C528.3 237.2 528.3 258.1 538.3 258.1 C548.2 258.1 548.2 270.3 558.2 270.3 C568.1 270.3 568.1 275.6 578.1 275.6 C588.1 275.6 588.1 232.0 598.0 232.0 C608.0 232.0 608.0 232.0 618.0 232.0 C627.9 232.0 627.9 254.7 637.9 254.7 C647.9 254.7 647.9 266.9 657.8 266.9 C667.8 266.9 667.8 279.1 677.7 279.1 C687.7 279.1 687.7 205.8 697.7 205.8 C707.6 205.8 707.6 164.0 717.6 164.0 C727.6 164.0 727.6 287.8 737.5 287.8 C747.5 287.8 747.5 244.2 757.5 244.2 C767.4 244.2 767.4 265.1 777.4 265.1 C787.3 265.1 787.3 266.9 797.3 266.9 C807.3 266.9 807.3 300.0 817.2 300.0 C827.2 300.0 827.2 275.6 837.2 275.6 C847.1 275.6 847.1 296.5 857.1 296.5 C867.1 296.5 867.1 275.6 877.0 275.6 C887.0 275.6 887.0 294.8 896.9 294.8 C906.9 294.8 906.9 287.8 916.9 287.8 C926.8 287.8 926.8 273.8 936.8 273.8 C946.8 273.8 946.8 282.6 956.7 282.6 C966.7 282.6 966.7 294.8 976.7 294.8 C986.6 294.8 986.6 282.6 996.6 282.6 C1006.5 282.6 1006.5 200.6 1016.5 200.6 C1026.5 200.6 1026.5 242.4 1036.4 242.4 C1046.4 242.4 1046.4 158.7 1056.4 158.7 C1066.3 158.7 1066.3 150.0 1076.3 150.0 C1086.3 150.0 1086.3 272.1 1096.2 272.1 C1106.2 272.1 1106.2 275.6 1116.1 275.6 C1126.1 275.6 1126.1 273.8 1136.1 273.8 C1146.0 273.8 1146.0 223.3 1156.0 223.3" fill="none" stroke="#f59e0b" stroke-width="2.5" stroke-linejoin="round" pathLength="1" class="ln"/>
<text x="60.0" y="328" text-anchor="start" style="font-size:12px;fill:#7d8590">AUG 14</text>
<text x="339.0" y="328" text-anchor="middle" style="font-size:12px;fill:#7d8590">AUG 28</text>
<text x="618.0" y="328" text-anchor="middle" style="font-size:12px;fill:#7d8590">SEP 11</text>
<text x="896.9" y="328" text-anchor="middle" style="font-size:12px;fill:#7d8590">SEP 25</text>
<circle cx="1156.0" cy="223.3" r="5" fill="#f59e0b" class="ar"/>
<text x="1156" y="328" text-anchor="end" style="font-size:12px;fill:#7d8590">TODAY</text>
</svg>